<svg id="eF1ya2Tj5Ph1" xmlns="http://www.w3.org/2000/svg" xmlns:xlink="http://www.w3.org/1999/xlink" viewBox="100 90 200 120" shape-rendering="geometricPrecision" text-rendering="geometricPrecision" project-id="ce64a81f185e4597973db0a6eed325a2" export-id="7d7e483c35e74c279c475557d1696e17" cached="false"><defs><radialGradient id="eF1ya2Tj5Ph4-fill" cx="0" cy="0" r="0.5" spreadMethod="pad" gradientUnits="objectBoundingBox" gradientTransform="translate(0.777778 0.2)"><stop id="eF1ya2Tj5Ph4-fill-0" offset="0%" stop-color="#e9fdff"/><stop id="eF1ya2Tj5Ph4-fill-1" offset="100%" stop-color="#000"/></radialGradient><radialGradient id="eF1ya2Tj5Ph5-fill" cx="0" cy="0" r="0.5" spreadMethod="pad" gradientUnits="objectBoundingBox" gradientTransform="translate(0.81 0.2)"><stop id="eF1ya2Tj5Ph5-fill-0" offset="0%" stop-color="#e9fdff"/><stop id="eF1ya2Tj5Ph5-fill-1" offset="100%" stop-color="#000"/></radialGradient></defs><path d="M105,120c0-10,0-20,20-20c40,0,60,20,60,30s0,20,0,30-20,40-60,40c-20,0-20-10-20-20-.210523-6.681183,0-49.042118,0-60Z" transform="translate(2 0)" fill="url(#eF1ya2Tj5Ph4-fill)" stroke-width="0.6"/><path d="M250,100c-30,0-50,20-50,50s20,50,50,50s50-20,50-50-20-50-50-50Z" transform="translate(-11 0)" fill="url(#eF1ya2Tj5Ph5-fill)" stroke-width="0.6"/></svg>
